squats_1_grf
version=1
nRows=34
nColumns=19
inDegrees=no
endheader
time	ground_force_right_vx	ground_force_right_vy	ground_force_right_vz	ground_force_right_px	ground_force_right_py	ground_force_right_pz	ground_force_right_mx	ground_force_right_my	ground_force_right_mz	ground_force_left_vx	ground_force_left_vy	ground_force_left_vz	ground_force_left_px	ground_force_left_py	ground_force_left_pz	ground_force_left_mx	ground_force_left_my	ground_force_left_mz
     20.16500000	     -3.50461631	    341.66827237	     36.73372161	     -3.47690984	      0.00728753	      2.29955959	     -0.00182264	      0.62530266	      0.00283121	      0.41454364	    344.69721315	    -41.71589218	     -3.46415983	      0.00802753	      2.70415297	      0.00122937	     -0.37001362	      0.00064252
     20.16600000	     -3.49315153	    340.77015234	     36.63127102	     -3.47689630	      0.00728743	      2.29958951	     -0.00181195	      0.62163491	      0.00281461	      0.34223851	    344.26973314	    -41.66073902	     -3.46407323	      0.00802777	      2.70412864	      0.00124676	     -0.37524660	      0.00065161
     20.16700000	     -3.48060959	    339.83807482	     36.52441497	     -3.47688088	      0.00728734	      2.29961964	     -0.00180049	      0.61770160	      0.00279680	      0.26845060	    343.83332578	    -41.60731030	     -3.46398198	      0.00802803	      2.70410365	      0.00126501	     -0.38074027	      0.00066115
     20.16800000	     -3.46715162	    338.87430102	     36.41339210	     -3.47686354	      0.00728725	      2.29964987	     -0.00178831	      0.61352534	      0.00277789	      0.19372092	    343.39000880	    -41.55614926	     -3.46388628	      0.00802831	      2.70407808	      0.00128407	     -0.38647536	      0.00067111
     20.16900000	     -3.45297410	    337.88119532	     36.29845724	     -3.47684423	      0.00728717	      2.29968008	     -0.00177551	      0.60913149	      0.00275800	      0.11862425	    342.94185046	    -41.50779319	     -3.46378638	      0.00802859	      2.70405198	      0.00130385	     -0.39242970	      0.00068145
     20.17000000	     -3.43830867	    336.86119370	     36.17987822	     -3.47682292	      0.00728710	      2.29971016	     -0.00176215	      0.60454776	      0.00273724	      0.04376271	    342.49094277	    -41.46276577	     -3.46368255	      0.00802889	      2.70402540	      0.00132428	     -0.39857838	      0.00069212
     20.17100000	     -3.42342135	    335.81677251	     36.05793276	     -3.47679958	      0.00728703	      2.29974003	     -0.00174832	      0.59980382	      0.00271576	     -0.03024135	    342.03937398	    -41.42156933	     -3.46357509	      0.00802920	      2.70399842	      0.00134526	     -0.40489401	      0.00070309
     20.17200000	     -3.40861088	    334.75041788	     35.93290553	     -3.47677420	      0.00728697	      2.29976957	     -0.00173412	      0.59493083	      0.00269370	     -0.10275318	    341.58920065	    -41.38467700	     -3.46346434	      0.00802952	      2.70397109	      0.00136670	     -0.41134701	      0.00071430
     20.17300000	     -3.39420627	    333.66459655	     35.80508541	     -3.47674675	      0.00728692	      2.29979871	     -0.00171963	      0.58996104	      0.00267120	     -0.17313413	    341.14241986	    -41.35252494	     -3.46335064	      0.00802985	      2.70394348	      0.00138850	     -0.41790608	      0.00072568
     20.17400000	     -3.38056362	    332.56172830	     35.67476304	     -3.47671722	      0.00728688	      2.29982737	     -0.00170496	      0.58492726	      0.00264841	     -0.24075055	    340.70094179	    -41.32550482	     -3.46323436	      0.00803019	      2.70391564	      0.00141053	     -0.42453861	      0.00073720
     20.17500000	     -3.36806200	    331.44416049	     35.54222849	     -3.47668559	      0.00728684	      2.29985550	     -0.00169019	      0.57986245	      0.00262547	     -0.30498315	    340.26656324	    -41.30395667	     -3.46311588	      0.00803054	      2.70388763	      0.00143270	     -0.43121120	      0.00074879
     20.17600000	     -3.35709884	    330.31414496	     35.40776934	     -3.47665184	      0.00728682	      2.29988302	     -0.00167544	      0.57479921	      0.00260255	     -0.36523642	    339.84094250	    -41.28816224	     -3.46299559	      0.00803089	      2.70385950	      0.00145489	     -0.43789031	      0.00076039
     20.17700000	     -3.34808440	    329.17381756	     35.27166888	     -3.47661596	      0.00728680	      2.29990992	     -0.00166077	      0.56976925	      0.00257977	     -0.42094813	    339.42557580	    -41.27833901	     -3.46287391	      0.00803124	      2.70383131	      0.00147700	     -0.44454275	      0.00077194
     20.17800000	     -3.34143589	    328.02518046	     35.13420466	     -3.47657793	      0.00728679	      2.29993614	     -0.00164630	      0.56480293	      0.00255729	     -0.47159859	    339.02177599	    -41.27463501	     -3.46275121	      0.00803160	      2.70380310	      0.00149890	     -0.45113641	      0.00078339
     20.17900000	     -3.33757095	    326.87008746	     34.99564721	     -3.47653772	      0.00728679	      2.29996166	     -0.00163209	      0.55992874	      0.00253522	     -0.51671950	    338.63065357	    -41.27712459	     -3.46262792	      0.00803196	      2.70377492	      0.00152051	     -0.45764083	      0.00079468
     20.18000000	     -3.33690082	    325.71023233	     34.85625908	     -3.47649531	      0.00728680	      2.29998648	     -0.00161823	      0.55517280	      0.00251368	     -0.55590216	    338.25310053	    -41.28580512	     -3.46250441	      0.00803232	      2.70374681	      0.00154174	     -0.46402782	      0.00080577
     20.18100000	     -3.33982333	    324.54714034	     34.71629409	     -3.47645068	      0.00728682	      2.30001058	     -0.00160478	      0.55055842	      0.00249279	     -0.58880484	    337.88977739	    -41.30059500	     -3.46238106	      0.00803268	      2.70371880	      0.00156248	     -0.47027205	      0.00081662
     20.18200000	     -3.34671566	    323.38216300	     34.57599681	     -3.47640377	      0.00728685	      2.30003398	     -0.00159180	      0.54610562	      0.00247263	     -0.61515903	    337.54110352	    -41.32133277	     -3.46225825	      0.00803304	      2.70369092	      0.00158268	     -0.47635156	      0.00082717
     20.18300000	     -3.35792722	    322.21647589	     34.43560226	     -3.47635456	      0.00728690	      2.30005667	     -0.00157934	      0.54183078	      0.00245327	     -0.63477450	    337.20725121	    -41.34777756	     -3.46213632	      0.00803340	      2.70366318	      0.00160227	     -0.48224818	      0.00083741
     20.18400000	     -3.37377264	    321.05107966	     34.29533581	     -3.47630301	      0.00728695	      2.30007868	     -0.00156743	      0.53774624	      0.00243478	     -0.64754281	    336.88814356	    -41.37961088	     -3.46201559	      0.00803375	      2.70363561	      0.00162121	     -0.48794791	      0.00084731
     20.18500000	     -3.39452512	    319.88680388	     34.15541317	     -3.47624906	      0.00728701	      2.30010004	     -0.00155611	      0.53386005	      0.00241719	     -0.65343939	    336.58345632	    -41.41643978	     -3.46189636	      0.00803410	      2.70360821	      0.00163946	     -0.49344117	      0.00085685
     20.18600000	     -3.42041013	    318.72431369	     34.01604054	     -3.47619266	      0.00728708	      2.30012078	     -0.00154537	      0.53017570	      0.00240050	     -0.65252385	    336.29262381	    -41.45780132	     -3.46177890	      0.00803445	      2.70358099	      0.00165701	     -0.49872293	      0.00086602
     20.18700000	     -3.45159976	    317.56411887	     33.87741470	     -3.47613376	      0.00728716	      2.30014093	     -0.00153521	      0.52669202	      0.00238473	     -0.64493868	    336.01484881	    -41.50316838	     -3.46166344	      0.00803478	      2.70355393	      0.00167385	     -0.50379275	      0.00087483
     20.18800000	     -3.48820776	    316.40658518	     33.73972324	     -3.47607232	      0.00728725	      2.30016053	     -0.00152562	      0.52340304	      0.00236984	     -0.63090625	    335.74911648	    -41.55195674	     -3.46155021	      0.00803511	      2.70352704	      0.00169001	     -0.50865469	      0.00088327
     20.18900000	     -3.53028542	    315.25194756	     33.60314471	     -3.47600827	      0.00728735	      2.30017964	     -0.00151657	      0.52029801	      0.00235578	     -0.61072409	    335.49421201	    -41.60353324	     -3.46143937	      0.00803543	      2.70350028	      0.00170550	     -0.51331712	      0.00089136
     20.19000000	     -3.57781842	    314.10032501	     33.46784882	     -3.47594158	      0.00728746	      2.30019830	     -0.00150801	      0.51736149	      0.00234248	     -0.58475877	    335.24874195	    -41.65722508	     -3.46133108	      0.00803575	      2.70347364	      0.00172037	     -0.51779246	      0.00089914
     20.19100000	     -3.63072469	    312.95173663	     33.33399650	     -3.47587221	      0.00728758	      2.30021656	     -0.00149989	      0.51457352	      0.00232986	     -0.55343828	    335.01115877	    -41.71232989	     -3.46122544	      0.00803605	      2.70344709	      0.00173467	     -0.52209681	      0.00090661
     20.19200000	     -3.68885344	    311.80611886	     33.20174008	     -3.47580011	      0.00728771	      2.30023448	     -0.00149212	      0.51190991	      0.00231780	     -0.51724312	    334.77978846	    -41.76812660	     -3.46112253	      0.00803635	      2.70342058	      0.00174847	     -0.52624956	      0.00091382
     20.19300000	     -3.75198528	    310.66334318	     33.07122329	     -3.47572526	      0.00728784	      2.30025211	     -0.00148464	      0.50934259	      0.00230618	     -0.47669649	    334.55286064	    -41.82388672	     -3.46102242	      0.00803663	      2.70339409	      0.00176183	     -0.53027286	      0.00092081
     20.19400000	     -3.81983352	    309.52323441	     32.94258135	     -3.47564766	      0.00728799	      2.30026951	     -0.00147735	      0.50684006	      0.00229485	     -0.43235350	    334.32854080	    -41.87888593	     -3.46092512	      0.00803691	      2.70336757	      0.00177485	     -0.53419118	      0.00092761
     20.19500000	     -3.89204663	    308.38558897	     32.81594094	     -3.47556730	      0.00728815	      2.30028673	     -0.00147014	      0.50436802	      0.00228365	     -0.38478984	    334.10496410	    -41.93241567	     -3.46083063	      0.00803718	      2.70334096	      0.00178761	     -0.53803071	      0.00093428
     20.19600000	     -3.96821176	    307.25019302	     32.69142027	     -3.47548420	      0.00728831	      2.30030383	     -0.00146292	      0.50188992	      0.00227243	     -0.33459003	    333.88027022	    -41.98379459	     -3.46073894	      0.00803744	      2.70331421	      0.00180020	     -0.54181890	      0.00094086
     20.19700000	     -4.04785944	    306.11684007	     32.56912900	     -3.47539840	      0.00728849	      2.30032085	     -0.00145557	      0.49936773	      0.00226101	     -0.28233557	    333.65263867	    -42.03237951	     -3.46064999	      0.00803769	      2.70328727	      0.00181271	     -0.54558387	      0.00094739
     20.19800000	     -4.13046922	    304.98534776	     32.44916832	     -3.47530996	      0.00728867	      2.30033786	     -0.00144797	      0.49676265	      0.00224922	     -0.22859305	    333.42032396	    -42.07757582	     -3.46056371	      0.00803793	      2.70326008	      0.00182523	     -0.54935393	      0.00095394
